<svg width="192" height="192" viewBox="0 0 192 192" fill="none" xmlns="http://www.w3.org/2000/svg">
  <defs>
    <linearGradient id="gradient" x1="0%" y1="0%" x2="100%" y2="100%">
      <stop offset="0%" style="stop-color:#667eea;stop-opacity:1" />
      <stop offset="100%" style="stop-color:#764ba2;stop-opacity:1" />
    </linearGradient>
  </defs>
  
  <!-- Background -->
  <rect width="192" height="192" rx="32" fill="url(#gradient)"/>
  
  <!-- Plane Icon -->
  <g transform="translate(48, 48)">
    <!-- Plane Body -->
    <path d="M96 24L72 48H48L56 56H72L96 32L120 56H136L128 48H104L96 24Z" fill="white" opacity="0.9"/>
    
    <!-- Plane Wings -->
    <path d="M32 64L64 48L96 64L128 48L160 64L128 80L96 64L64 80L32 64Z" fill="white" opacity="0.8"/>
    
    <!-- Ticket Elements -->
    <rect x="24" y="88" width="144" height="48" rx="8" fill="white" opacity="0.9"/>
    
    <!-- Ticket Perforations -->
    <circle cx="32" cy="112" r="3" fill="url(#gradient)"/>
    <circle cx="48" cy="112" r="3" fill="url(#gradient)"/>
    <circle cx="64" cy="112" r="3" fill="url(#gradient)"/>
    <circle cx="80" cy="112" r="3" fill="url(#gradient)"/>
    <circle cx="96" cy="112" r="3" fill="url(#gradient)"/>
    <circle cx="112" cy="112" r="3" fill="url(#gradient)"/>
    <circle cx="128" cy="112" r="3" fill="url(#gradient)"/>
    <circle cx="144" cy="112" r="3" fill="url(#gradient)"/>
    <circle cx="160" cy="112" r="3" fill="url(#gradient)"/>
    
    <!-- Ticket Text Lines -->
    <rect x="32" y="96" width="48" height="4" rx="2" fill="url(#gradient)" opacity="0.6"/>
    <rect x="32" y="104" width="32" height="4" rx="2" fill="url(#gradient)" opacity="0.6"/>
    
    <rect x="32" y="120" width="48" height="4" rx="2" fill="url(#gradient)" opacity="0.6"/>
    <rect x="32" y="128" width="32" height="4" rx="2" fill="url(#gradient)" opacity="0.6"/>
    
    <!-- Right side info -->
    <rect x="120" y="96" width="32" height="4" rx="2" fill="url(#gradient)" opacity="0.6"/>
    <rect x="120" y="104" width="24" height="4" rx="2" fill="url(#gradient)" opacity="0.6"/>
    
    <rect x="120" y="120" width="32" height="4" rx="2" fill="url(#gradient)" opacity="0.6"/>
    <rect x="120" y="128" width="24" height="4" rx="2" fill="url(#gradient)" opacity="0.6"/>
  </g>
</svg>